HIERARCHY
ROOT Hips
{
 OFFSET 0.000000 0.000000 0.000000
 CHANNELS 6 Xposition Yposition Zposition Yrotation Xrotation Zrotation
 JOINT Chest
 {
  OFFSET 0.000000 9.585900 0.002600
  CHANNELS 3 Yrotation Xrotation Zrotation
  JOINT Chest2
  {
   OFFSET 0.000000 9.601200 -0.005300
   CHANNELS 3 Yrotation Xrotation Zrotation
   JOINT Chest3
   {
    OFFSET 0.000000 9.561800 0.000000
    CHANNELS 3 Yrotation Xrotation Zrotation
    JOINT Chest4
    {
     OFFSET 0.000000 9.552100 0.000000
     CHANNELS 3 Yrotation Xrotation Zrotation
     JOINT Neck
     {
      OFFSET 0.000000 14.453000 0.000000
      CHANNELS 3 Yrotation Xrotation Zrotation
      JOINT Head
      {
       OFFSET 0.000000 8.936500 -0.011300
       CHANNELS 3 Yrotation Xrotation Zrotation
       End Site
       {
        OFFSET 0.000000 17.073600 -0.006000
       }
      }
     }
     JOINT RightCollar
     {
      OFFSET -2.921100 9.558500 0.000000
      CHANNELS 3 Yrotation Xrotation Zrotation
      JOINT RightShoulder
      {
       OFFSET -13.519700 0.000000 0.000000
       CHANNELS 3 Yrotation Xrotation Zrotation
       JOINT RightElbow
       {
        OFFSET 0.000000 -29.696600 0.000000
        CHANNELS 3 Yrotation Xrotation Zrotation
        JOINT RightWrist
        {
         OFFSET 0.000000 -24.004700 0.000000
         CHANNELS 3 Yrotation Xrotation Zrotation
         End Site
         {
          OFFSET 0.000000 -17.728500 0.000000
         }
        }
       }
      }
     }
     JOINT LeftCollar
     {
      OFFSET 2.921100 9.558500 0.000000
      CHANNELS 3 Yrotation Xrotation Zrotation
      JOINT LeftShoulder
      {
       OFFSET 13.519700 0.000000 0.000000
       CHANNELS 3 Yrotation Xrotation Zrotation
       JOINT LeftElbow
       {
        OFFSET 0.000000 -29.696600 0.000000
        CHANNELS 3 Yrotation Xrotation Zrotation
        JOINT LeftWrist
        {
         OFFSET 0.000000 -24.004700 0.000000
         CHANNELS 3 Yrotation Xrotation Zrotation
         End Site
         {
          OFFSET 0.000000 -17.728500 0.000000
         }
        }
       }
      }
     }
    }
   }
  }
 }
 JOINT RightHip
 {
  OFFSET -7.771700 -0.012900 -0.001300
  CHANNELS 3 Yrotation Xrotation Zrotation
  JOINT RightKnee
  {
   OFFSET 0.000000 -40.869800 0.001200
   CHANNELS 3 Yrotation Xrotation Zrotation
   JOINT RightAnkle
   {
    OFFSET 0.000000 -39.717900 0.002100
    CHANNELS 3 Yrotation Xrotation Zrotation
    JOINT RightToe
    {
     OFFSET 0.000000 -4.965400 11.033500
     CHANNELS 3 Yrotation Xrotation Zrotation
     End Site
     {
      OFFSET 0.000000 -1.423100 5.872300
     }
    }
   }
  }
 }
 JOINT LeftHip
 {
  OFFSET 7.771700 -0.012900 -0.001300
  CHANNELS 3 Yrotation Xrotation Zrotation
  JOINT LeftKnee
  {
   OFFSET 0.000000 -40.869800 0.001200
   CHANNELS 3 Yrotation Xrotation Zrotation
   JOINT LeftAnkle
   {
    OFFSET 0.000000 -39.717900 0.002100
    CHANNELS 3 Yrotation Xrotation Zrotation
    JOINT LeftToe
    {
     OFFSET 0.000000 -4.965400 11.033500
     CHANNELS 3 Yrotation Xrotation Zrotation
     End Site
     {
      OFFSET 0.000000 -1.423100 5.872300
     }
    }
   }
  }
 }
}
MOTION
Frames: 7
Frame Time: 0.008333
0.000000 85.388000 0.000000 0.000000 -5.767877 0.000000 0.000000 11.653817 0.000000 0.000000 -5.885947 0.000000 0.000000 -0.000000 0.000000 0.000000 -0.000000 0.000000 0.000000 12.528835 0.000000 0.000000 0.711642 0.000000 0.000000 -0.000000 0.000000 0.000000 0.000000 -90.000000 0.000000 -2.309062 0.000000 0.000000 2.309062 0.000000 0.000000 -0.000000 0.000000 0.000000 -0.000000 90.000000 0.000000 -2.309062 0.000000 0.000000 2.309062 0.000000 0.000000 8.520406 0.000000 0.000000 1.905762 0.000000 -0.000000 -4.658285 0.000000 0.000000 -0.000000 0.000000 0.000000 8.520406 0.000000 0.000000 1.905762 0.000000 -0.000000 -4.658285 0.000000 0.000000 -0.000000 0.000000
-64.747460 57.688758 11.488460 177.859711 -48.388936 -2.983435 3.274123 21.852121 3.277157 1.658049 12.462917 1.707197 2.140663 15.613658 2.206992 1.654158 12.497819 1.708402 -1.070966 17.485112 1.139757 -2.569964 -3.219656 2.512340 1.461453 4.324909 0.785144 -3.453164 -17.006808 -9.032487 -29.410883 -20.554653 91.160535 -5.733939 -8.099145 -29.077495 -11.542050 1.761948 -1.789153 -0.092093 -18.285362 12.961641 27.279493 -25.790518 -79.477491 12.101486 -18.420634 20.706024 7.068723 -23.050598 -2.348626 -34.266792 74.830748 -38.851690 6.950474 -16.363614 13.533898 -0.000050 -0.009259 0.024350 -7.212149 -20.726968 5.326867 89.402867 80.810411 89.191867 0.927798 -21.745242 -19.029734 0.028842 0.066136 0.008949
-64.750233 57.686856 11.490752 177.866619 -48.413430 -2.987003 3.277913 21.806757 3.275435 1.658150 12.495244 1.709557 2.145777 15.610359 2.208612 1.658207 12.495225 1.709636 -1.219012 17.567161 1.151894 -2.688400 -3.118872 2.540033 1.374674 4.313502 0.816358 -3.401230 -17.118618 -8.996401 -29.326899 -20.462713 91.050138 -5.655905 -8.091114 -28.976043 -11.662199 1.887765 -1.789222 0.015258 -18.228170 12.927217 28.097924 -25.053179 -80.212184 11.673291 -20.061451 20.661282 7.069472 -23.025999 -2.345185 -34.279630 74.828723 -38.862452 6.920320 -16.370681 13.535158 -0.001101 -0.017138 0.019514 -7.207138 -20.711420 5.316043 89.395599 80.810440 89.197153 0.925555 -21.733225 -19.032257 0.025083 0.058302 0.011205
-64.752088 57.687852 11.491224 177.874918 -48.465153 -2.998662 3.284648 21.823784 3.279023 1.662637 12.494590 1.709095 2.151359 15.609501 2.208126 1.662673 12.494543 1.709143 -1.309934 17.621542 1.167733 -2.870426 -3.009788 2.596465 1.286660 4.317522 0.846106 -3.336283 -17.212083 -8.965590 -29.271786 -20.416788 90.991512 -5.595172 -8.088076 -28.898899 -11.759644 1.998121 -1.771988 0.177161 -18.140303 12.825669 29.072096 -24.179632 -81.038406 11.087993 -21.423446 20.516280 7.068493 -22.973657 -2.330061 -34.288816 74.822654 -38.871742 6.913764 -16.373480 13.534320 0.015310 -0.025361 0.021059 -7.200966 -20.666752 5.308392 89.408873 80.805298 89.223015 0.918541 -21.723627 -19.030673 0.026083 0.049143 0.010085
-64.753975 57.686340 11.494689 177.878892 -48.499082 -3.008594 3.290327 21.840175 3.285168 1.664958 12.480667 1.699290 2.156021 15.612179 2.204987 1.669508 12.500773 1.714572 -1.333582 17.647021 1.186215 -3.124166 -2.895719 2.675105 1.205200 4.327767 0.867070 -3.271052 -17.300821 -8.938570 -29.238524 -20.390987 90.948883 -5.545526 -8.081029 -28.820818 -11.826668 2.087306 -1.749776 0.391124 -18.028409 12.653871 30.182040 -23.255189 -81.905871 10.422389 -22.472901 20.252357 7.067238 -22.936583 -2.318784 -34.249781 74.814468 -38.839952 6.930529 -16.383426 13.539110 0.004213 -0.023742 0.017186 -7.187247 -20.642060 5.302451 89.428811 80.802222 89.261283 0.918135 -21.717304 -19.028725 0.024672 0.043847 0.008248
-64.755239 57.686466 11.497591 177.887305 -48.545700 -3.025440 3.294706 21.869029 3.295043 1.661472 12.476773 1.690488 2.153523 15.611287 2.192794 1.684102 12.515943 1.734717 -1.517698 17.697427 1.176754 -3.230712 -2.830886 2.731223 1.132554 4.338495 0.874886 -3.205108 -17.397929 -8.917807 -29.199294 -20.365678 90.912710 -5.499435 -8.092095 -28.754087 -11.851934 2.126220 -1.739646 0.644347 -17.873245 12.420657 31.397604 -22.383397 -82.758997 9.771970 -23.192148 19.888527 7.066807 -22.881366 -2.299652 -34.245454 74.800305 -38.830234 6.935987 -16.398325 13.538807 0.002113 -0.017253 0.016152 -7.185630 -20.598008 5.301266 89.423822 80.800153 89.265662 0.917462 -21.717499 -19.026659 0.029611 0.044390 0.006119
-64.755307 57.684112 11.503632 177.913660 -48.569764 -3.062488 3.265628 21.833637 3.275909 1.682587 12.529521 1.719202 2.133842 15.600598 2.166248 1.699088 12.516694 1.729542 -1.649509 17.742877 1.199970 -3.370754 -2.767641 2.797398 1.081075 4.372530 0.907388 -3.138283 -17.497130 -8.906234 -29.183701 -20.375623 90.920832 -5.484392 -8.096910 -28.724326 -11.864857 2.240868 -1.685527 0.977251 -17.776307 12.101023 32.666762 -21.715275 -83.515929 9.302956 -23.611875 19.443193 7.044706 -22.857258 -2.277184 -34.240519 74.793848 -38.825232 6.936249 -16.425452 13.541308 -0.009057 0.004073 0.012339 -7.201070 -20.574297 5.308483 89.412631 80.795843 89.263875 0.931658 -21.697964 -19.027133 0.014060 0.031052 0.001011
